<?xml version="1.0" encoding="UTF-8"?>
<svg transform="scale(-1 1)" width="800px" height="800px" fill="#000000" version="1.1" viewBox="0 0 512 512" xml:space="preserve" xmlns="http://www.w3.org/2000/svg" xmlns:xlink="http://www.w3.org/1999/xlink"><defs><linearGradient id="a"><stop stop-color="#ff8100" offset="0"/><stop stop-color="#c200a4" offset="1"/></linearGradient><linearGradient id="c" x1="5.3835" x2="510.53" y1=".89725" y2="510.53" gradientUnits="userSpaceOnUse" xlink:href="#a"/><linearGradient id="b" x1="5.3835" x2="510.53" y1=".89725" y2="510.53" gradientTransform="matrix(-1 0 0 1 511.96 0)" gradientUnits="userSpaceOnUse" xlink:href="#a"/></defs>
<g fill="url(#b)" stroke-width=".98738"><path class="st0" d="m205.1 149.25c31.532 11.257 69.392-12.408 84.573-52.854 15.173-40.447 1.9148-82.351-29.612-93.601-31.539-11.242-69.395 12.417-84.575 52.863-15.174 40.447-1.9158 82.351 29.614 93.593z"/><path class="st0" d="m85.29 213.76c32.984-2.7885 56.674-39.336 52.925-81.657-3.7567-42.306-33.542-74.347-66.527-71.574-32.981 2.7973-56.67 39.351-52.917 81.665 3.7577 42.306 33.538 74.346 66.519 71.565z"/><path class="st0" d="m342.17 212.32c28.95 16.592 70.547-0.0712 92.919-37.2 22.372-37.154 17.04-80.689-11.914-97.28-28.949-16.576-70.555 0.09458-92.923 37.224-22.37 37.147-17.031 80.682 11.918 97.257z"/><path class="st0" d="m497.22 256.34c-18.77-26.589-63.065-28.645-98.946-4.5767-35.889 24.084-49.758 65.152-30.994 91.749 18.765 26.588 63.064 28.646 98.946 4.5689 35.877-24.076 49.754-65.144 30.994-91.741z"/><path class="st0" d="m304.49 261.36c-3.5797-24.154-18.765-46.182-43.036-57.354-24.266-11.164-51.361-8.5869-72.752 4.0648-23.644 13.991-38.769 32.269-59.133 40.258-20.361 7.9882-77.394-15.804-112.9 47.071-25.079 44.409-2.0568 100.55 44.959 122.18 35.735 16.442 64.018 14.607 84.781 24.155 20.76 9.5482 37.287 32.009 73.019 48.45 47.014 21.633 106.09 3.278 125.31-43.833 27.204-66.697-27.895-94.499-34.519-114.9-6.6185-20.402-1.7619-43.407-5.7206-70.09z"/></g></svg>