<svg xmlns="http://www.w3.org/2000/svg" xmlns:xlink="http://www.w3.org/1999/xlink" xml:space="preserve" transform="scale(-1 1)" viewBox="0 0 512 512"><defs><linearGradient id="a"><stop offset="0" stop-color="#ff8100"/><stop offset="1" stop-color="#c200a4"/></linearGradient><linearGradient xlink:href="#a" id="b" x1="5.4" x2="510.5" y1=".9" y2="510.5" gradientTransform="matrix(-1 0 0 1 512 0)" gradientUnits="userSpaceOnUse"/></defs><path fill="url(#b)" d="M205 149c32 12 69-12 85-53 15-40 2-82-30-93-31-11-69 12-85 53-15 40-1 82 30 93zM85 214c33-3 57-40 53-82s-33-74-66-71c-33 2-57 39-53 81 4 43 33 75 66 72zm257-2c29 17 71 0 93-37s17-81-12-97c-29-17-70 0-93 37-22 37-17 81 12 97zm155 44c-19-26-63-28-99-4s-49 65-31 92c19 26 63 28 99 4s50-65 31-92zm-193 5c-3-24-18-46-43-57-24-11-51-9-72 4-24 14-39 32-59 40-21 8-78-15-113 47-25 45-2 101 45 123 35 16 64 14 84 24 21 9 38 32 73 48 47 22 107 3 126-44 27-66-28-94-35-115-6-20-2-43-6-70z" class="st0"/></svg>
